# xmcd CD database file
#
# Track frame offsets:
#	150
#	14005
#	26806
#	39157
#	48904
#	61652
#	71402
#	83459
#	99809
#	111953
#
# Disc length: 1664 seconds
#
# Revision: 0
# Processed by: cddbd v1.5.2PL0 Copyright (c) Steve Scherf et al.
# Submitted via: CDex 1.51
#
DISCID=6e067e0a
DTITLE=Merle Haggard - Country Music Legends CD1
DYEAR=1900
DGENRE=Country
TTITLE0=I Threw Away The Rose
TTITLE1=Swinging Doors
TTITLE2=Okie From Muskogee
TTITLE3=The Legend Of Bonnie And Clyde
TTITLE4=Sing Me Back Home
TTITLE5=Mama Tried
TTITLE6=I Take A Lot Of Pride In What I Am
TTITLE7=Hungry Eyes
TTITLE8=Workin' Man Blues
TTITLE9=The Fightin' Side Of Me
EXTD=
EXTT0=
EXTT1=
EXTT2=
EXTT3=
EXTT4=
EXTT5=
EXTT6=
EXTT7=
EXTT8=
EXTT9=
PLAYORDER=
